<svg width="261" height="16" viewBox="0 0 261 16" fill="none" xmlns="http://www.w3.org/2000/svg">
<mask id="mask0_71_16" style="mask-type:alpha" maskUnits="userSpaceOnUse" x="0" y="0" width="261" height="16">
<rect width="261" height="16" fill="#C4C4C4"/>
</mask>
<g mask="url(#mask0_71_16)">
<path d="M39.203 -3.38391L39.8409 -3.59481L38.5996 -3.89718L39.1946 -4.11852C39.7913 -4.11649 40.5644 -3.78485 40.9851 -3.96106C41.0365 -4.13168 40.3868 -4.18644 40.221 -4.32237C40.0743 -4.46171 39.9545 -4.60013 39.8632 -4.73599C40.1881 -4.73452 40.5454 -4.70166 40.9137 -4.63934C41.4092 -4.53754 41.8951 -4.48805 42.318 -4.49634C43.1826 -4.46885 44.018 -4.49628 44.9581 -4.49024L44.6453 -4.90085L45.8569 -4.80479C45.9853 -4.77351 46.1383 -4.82382 46.2645 -4.78512C47.3145 -4.45769 47.7588 -4.63611 48.2628 -4.78406C48.3662 -4.82233 48.4907 -4.85092 48.633 -4.86906C50.0337 -4.79062 51.2968 -4.33166 52.5582 -4.09605C52.7956 -4.03589 53.0233 -3.95868 53.2252 -3.86987C53.6639 -3.69723 54.152 -3.55628 54.6447 -3.45991C55.1374 -3.36354 55.6189 -3.31485 56.0454 -3.31824C56.9885 -3.32206 58.054 -3.20787 59.1388 -2.98673C59.4614 -2.91389 59.7842 -2.86584 60.0867 -2.84564C60.3891 -2.82544 60.6646 -2.83352 60.8954 -2.86939L61.6288 -2.63499C61.9467 -2.7301 62.3499 -2.78229 62.8137 -2.78838C63.2776 -2.79446 63.7925 -2.75433 64.3273 -2.67041C64.8972 -2.57937 65.476 -2.51799 66.0673 -2.42174C67.2886 -2.23773 68.4773 -2.12519 69.5963 -2.08762C71.2627 -1.9763 72.8909 -1.89023 74.5721 -1.75144C75.6238 -1.68444 76.6485 -1.6476 77.6401 -1.64109C78.828 -1.61489 80.1128 -1.48803 81.4328 -1.26665C81.3702 -1.05895 80.7914 -1.12031 80.4029 -1.12734C79.1498 -1.16186 77.8673 -1.25132 76.5781 -1.31852C75.9973 -1.34475 75.4325 -1.35469 74.887 -1.34826C73.975 -1.35687 73.0136 -1.41221 72.0192 -1.51334C70.4484 -1.62462 68.9277 -1.67811 67.4728 -1.67327C67.3588 -1.66504 67.2542 -1.65047 67.161 -1.62978C67.1416 -1.61186 67.1377 -1.58927 67.1499 -1.56416C67.162 -1.53906 67.1897 -1.51229 67.2303 -1.48641C67.271 -1.46053 67.3231 -1.43642 67.3818 -1.41638C67.4406 -1.39633 67.5039 -1.38102 67.5658 -1.37192C68.1437 -1.23116 68.7643 -1.07998 69.3092 -1.05871C69.3303 -1.05712 69.3527 -1.05349 69.375 -1.04808C69.3972 -1.04267 69.4186 -1.03562 69.4376 -1.02743C70.6576 -0.730267 71.6606 -0.780555 72.6109 -0.732205C74.1886 -0.601538 75.7095 -0.540504 77.1506 -0.550024C77.3684 -0.549375 77.6036 -0.532392 77.8476 -0.499681C79.3569 -0.367082 80.7683 -0.35225 82.0154 -0.455859C82.5287 -0.482108 83.006 -0.541034 83.5576 -0.54202C83.8974 -0.546076 84.1932 -0.583678 84.4271 -0.652578C84.6611 -0.721478 84.8284 -0.820251 84.919 -0.942954C85.1517 -0.878351 85.3881 -0.820778 85.6252 -0.770919C85.7669 -0.742411 85.9027 -0.734841 86.0053 -0.749757C86.1079 -0.764675 86.1695 -0.800968 86.1779 -0.851294C86.2203 -0.992238 85.8971 -1.06302 85.6166 -1.12338C85.7858 -1.1536 85.9763 -1.17138 86.1839 -1.17629C87.3526 -1.2085 88.6062 -1.17049 89.9174 -1.0631C90.9354 -0.93455 91.748 -1.03918 92.8191 -0.857903C92.9475 -0.826621 93.0532 -0.872533 93.1714 -0.883557C93.4796 -0.941608 93.8635 -0.954657 94.2899 -0.921561C94.7162 -0.888463 95.1722 -0.810222 95.6182 -0.693619C96.1737 -1.01218 97.3735 -0.648253 98.2596 -0.615544C98.5324 -0.453541 98.2194 -0.482021 98.2059 -0.437513C98.1925 -0.393005 98.2059 -0.437524 98.0989 -0.46359C97.2142 -0.234162 96.0022 -0.184136 94.6328 -0.320538C94.3796 -0.319973 94.1383 -0.309522 93.9112 -0.289284C93.5674 -0.260642 93.1797 -0.263501 92.7651 -0.297739C92.3122 -0.322886 91.8961 -0.310943 91.5369 -0.262489C91.3303 -0.263277 91.1556 -0.239004 91.0289 -0.191903C90.9023 -0.144802 90.8279 -0.0763985 90.8125 0.00694765C90.9505 0.0711989 91.1035 0.129992 91.2655 0.180989C92.1114 0.382346 92.955 0.465694 93.6302 0.414632C94.8054 0.326651 96.2038 0.412507 97.4534 0.38247C98.2982 0.370303 99.1971 0.404962 100.133 0.485799C100.133 0.485799 100.109 0.567397 100.106 0.574816C100.217 0.610145 100.333 0.63849 100.449 0.658232C100.449 0.658232 100.449 0.658233 100.46 0.621142C100.409 0.585523 100.339 0.552015 100.259 0.524497L99.981 0.456721C100.17 0.439084 100.347 0.386569 100.544 0.418655C100.959 0.478265 101.356 0.503427 101.711 0.492655C102.065 0.481882 102.37 0.435385 102.607 0.355957C103.028 0.254161 103.55 0.207868 104.142 0.220068C104.595 0.208954 105.031 0.185069 105.45 0.148531C105.45 0.148531 105.476 0.059522 105.675 0.012212C105.487 -0.0461401 105.291 -0.093788 105.097 -0.128545C104.25 -0.215382 103.401 -0.294804 102.569 -0.354175C102.262 -0.360587 101.974 -0.350641 101.71 -0.324525C100.978 -0.293966 100.155 -0.337339 99.2901 -0.452114C99.2901 -0.452114 99.1189 -0.493819 99.0333 -0.514673C99.276 -0.710344 100.113 -0.514455 100.451 -0.646966C100.657 -0.644555 101.02 -0.62789 101.008 -0.662778C100.979 -0.70933 100.976 -0.752577 100.998 -0.789416C101.019 -0.826255 101.066 -0.855775 101.133 -0.875856C101.201 -0.895937 101.288 -0.906089 101.388 -0.905573C101.489 -0.905057 101.6 -0.893884 101.714 -0.872869C102.667 -0.759185 103.564 -0.727569 104.351 -0.779963C104.649 -0.778951 104.984 -0.745256 105.28 -0.736827C105.461 -0.726674 105.627 -0.732321 105.767 -0.753455C106.483 -0.909111 107.446 -0.92048 108.511 -0.785852C109.026 -0.737448 109.507 -0.730977 109.93 -0.766764C110.23 -0.773171 110.358 -0.662503 110.572 -0.610368L111.48 -0.500469L110.313 -0.362763C110.563 -0.0471852 110.761 0.0568735 111.169 0.0765331C111.763 0.106224 112.342 0.119636 112.903 0.116689C113.317 0.114097 113.659 0.0461327 114.22 0.166846C114.319 0.186534 114.414 0.192906 114.49 0.184894C115.147 0.0777284 115.938 0.0531337 116.809 0.112788C117.26 -0.0878877 118.028 0.107222 118.739 0.264428C118.968 0.113265 118.553 0.0438757 118.305 -0.048358C118.899 -0.0389174 119.498 -0.0443078 120.112 -0.0222343C120.297 -0.0302695 120.507 -0.0165253 120.728 0.0179198C120.949 0.0523649 121.174 0.106565 121.385 0.176283C121.487 0.221331 121.611 0.255235 121.731 0.270955C121.85 0.286676 121.955 0.283009 122.025 0.260714C122.344 0.194962 122.854 0.255522 123.117 0.144457C123.211 0.118916 123.344 0.115348 123.494 0.134383C123.644 0.153418 123.801 0.193822 123.936 0.24835C123.788 0.265362 123.657 0.292153 123.544 0.328132C123.141 0.445006 123.289 0.64029 123.801 0.924199C124.587 0.908584 125.39 0.91302 126.118 0.85951C126.524 0.811477 127.021 0.826492 127.554 0.90287C128.087 0.979249 128.635 1.11396 129.135 1.29186C129.316 1.36027 129.522 1.40764 129.713 1.42459C129.904 1.44153 130.065 1.4268 130.164 1.38331C130.226 1.33301 130.245 1.26935 130.22 1.19786L129.706 1.07274C129.706 1.07274 129.726 1.00598 129.731 0.99114L130.469 0.979923C130.86 0.979533 131.268 0.999198 131.637 0.993596C132.179 0.956338 132.799 0.977105 133.456 1.05461C134.063 1.13408 134.66 1.19416 135.24 1.2343C135.802 1.27562 136.209 1.1439 136.744 1.12286C137.148 1.10701 137.593 1.12395 138.061 1.17303C138.87 1.26009 139.612 1.26025 140.221 1.1735C140.93 1.64087 141.274 1.71686 141.933 1.59057L142.242 1.55449L142.327 1.65473L142.563 1.63269C143.006 1.61305 143.448 1.59343 143.91 1.58643C144.552 1.6298 145.245 1.74649 145.921 1.92511C146.05 1.95639 146.224 2.06266 146.337 2.14587C146.45 2.22908 146.696 2.48009 146.876 2.6435C146.68 2.76278 146.461 2.87685 146.305 3.01398C146.29 3.03741 146.291 3.06534 146.31 3.09554C146.328 3.12574 146.364 3.15737 146.412 3.18786C146.461 3.21836 146.523 3.24688 146.591 3.27115C146.66 3.29541 146.734 3.31474 146.808 3.32757C146.952 3.35522 147.094 3.37366 147.228 3.38211C147.889 3.3967 148.523 3.38586 149.122 3.3497C149.34 3.29868 149.64 3.29383 149.973 3.33593C150.305 3.37804 150.652 3.46468 150.958 3.58211C151.742 3.51161 152.653 3.53244 153.628 3.64315C154.659 3.57582 155.904 3.71199 156.868 3.56445C156.845 3.63863 156.945 3.76635 157.083 3.83994C157.303 3.95171 157.551 4.05529 157.818 4.1463L159.855 4.324C159.931 4.41537 160.026 4.50787 160.139 4.60028C160.217 4.67328 160.352 4.74472 160.515 4.79944C160.679 4.85417 160.859 4.88788 161.016 4.89343C161.421 4.92052 161.761 4.85997 162.245 5.00955C161.5 5.15094 160.496 5.13216 159.412 4.95654C158.393 4.82298 157.413 4.75622 156.508 4.75876C156.21 4.75775 155.817 4.76555 155.723 4.84635C155.517 5.0747 154.976 5.0386 154.346 4.99648C153.85 4.95037 153.398 4.95554 153.026 5.01158C152.653 5.06761 152.372 5.1729 152.204 5.31879C152.161 5.45974 152.263 5.58004 152.698 5.66205L154.506 5.99092C154.772 5.94864 155.025 5.89859 155.263 5.84098C155.664 5.76446 156.159 5.74345 156.71 5.7796C157.261 5.81575 157.853 5.90807 158.439 6.04938C158.739 6.12237 159.039 6.19536 159.256 6.16068C159.446 6.12084 159.622 6.07314 159.781 6.01794C159.813 5.98095 159.826 5.93837 159.819 5.89183C159.934 5.91347 160.05 5.9416 160.162 5.97525C161.054 6.36784 161.745 6.36104 162.373 6.25921C162.543 6.22894 162.673 6.18083 162.845 6.14314C163.017 6.10545 163.078 6.05654 163.234 6.07078C164.482 6.19953 164.841 5.76949 165.893 5.78676C165.944 5.76996 165.976 5.74485 165.985 5.71374C165.995 5.68262 165.981 5.64652 165.946 5.60873C165.872 5.57462 165.786 5.54528 165.696 5.52341C165.607 5.50155 165.516 5.48786 165.433 5.48361C164.949 5.42843 164.521 5.44534 164.224 5.53149C164.013 5.56668 163.79 5.59473 163.555 5.61547L162.502 4.99271C163.522 5.04979 164.487 5.04942 165.374 4.99159C165.568 4.95912 165.896 5.01507 166.168 5.0257L168.172 5.08391C168.584 5.08874 168.935 4.99111 169.51 5.21869C169.51 5.21869 169.889 5.25538 169.991 5.22431C170.092 5.19323 170.541 4.99998 170.808 4.87407C171.119 4.90997 171.549 5.00683 171.743 4.97436C172.081 4.89459 172.374 4.79234 172.616 4.66943L173.827 4.84489C173.825 5.00076 173.781 5.14739 173.695 5.28256C173.6 5.41291 173.604 5.5694 173.704 5.73921C173.805 5.90901 174 6.08732 174.273 6.25957L175.469 7.17185C175.664 7.23294 175.872 7.27406 176.064 7.28963C176.257 7.3052 176.425 7.29447 176.545 7.25888C177.059 7.15324 177.636 7.07065 178.15 6.96501C178.813 7.12663 178.643 7.38766 179.125 7.61664L180.688 7.99721C180.926 8.34988 181.169 8.68771 180.444 8.80578C180.3 8.82642 180.397 8.96157 180.265 9.01709C180.829 9.28176 181.448 9.36098 182.019 9.524C182.245 9.64123 182.433 9.76533 182.575 9.8903C182.732 10.0785 183.048 10.2707 183.457 10.4254C183.866 10.5802 184.335 10.685 184.761 10.7174C185.477 10.8165 186.209 10.9653 186.926 11.1571C187.171 11.2238 187.422 11.2725 187.664 11.2997C187.905 11.3269 188.131 11.3321 188.326 11.315C189.019 11.2848 189.606 11.1809 190.049 11.0101C190.486 10.8651 191.076 10.7953 191.764 10.8068C192.941 11.0936 193.178 11.5256 193.891 11.9062L192.66 11.9488C192.616 12.0972 192.697 12.2843 192.193 12.2808C191.688 12.2774 191.944 12.4194 192.108 12.5627C192.165 12.6348 192.278 12.709 192.426 12.7727C192.574 12.8364 192.749 12.8857 192.921 12.9122L193.969 13.0957C194.34 13.1655 194.7 13.1953 195.008 13.1819C195.316 13.1684 195.56 13.1122 195.715 13.0194C195.892 12.9312 196.137 12.8716 196.434 12.8442C196.812 12.7722 197.124 12.6653 197.356 12.5274L198.835 12.7283C198.898 12.5897 199.101 12.4926 199.41 12.4532C199.719 12.4139 200.115 12.4348 200.531 12.5125L201.528 12.6358C202.636 12.7704 202.879 12.7261 203.203 12.3353L201.874 11.6374C202.068 11.4535 202.254 11.2919 202.441 11.1303C202.11 10.9004 201.668 10.6829 201.16 10.5C200.687 10.3034 200.2 10.113 199.701 9.92953C199.161 9.74205 198.589 9.57903 197.918 9.36769C197.801 9.29933 197.63 9.17822 197.413 9.06153C197.195 8.94813 196.968 8.83697 196.732 8.72849C196.777 8.58013 196.817 8.44661 196.731 8.27438C197.145 8.32934 197.572 8.42545 197.974 8.55406C198.377 8.68266 198.742 8.83972 199.036 9.01106C199.086 9.04145 199.146 9.06999 199.214 9.09475C199.282 9.11952 199.355 9.13994 199.429 9.15462C200.156 9.2599 200.503 9.47984 200.858 9.74951C201.097 9.88736 201.406 10.0098 201.741 10.0998C202.383 10.2562 203.011 10.4571 203.625 10.6306C203.813 10.6883 204.008 10.7359 204.203 10.7713C204.845 10.8838 205.491 11.0412 206.108 11.2353C206.309 11.2847 206.503 11.35 206.672 11.4257C206.841 11.5015 206.98 11.5856 207.079 11.671C206.926 11.7645 206.844 11.8826 206.837 12.018C206.81 12.1071 207.261 12.2885 207.474 12.4201C207.687 12.5516 207.269 12.4896 207.127 12.5028C206.545 12.5283 206.437 12.5816 206.786 12.8735C206.902 12.9653 206.979 13.0572 207.013 13.1434C207.046 13.2295 207.035 13.3082 206.979 13.3746C206.897 13.649 206.645 13.8744 206.472 14.1428C206.741 14.3197 207.189 14.5085 207.238 14.7275C207.261 14.776 207.311 14.8275 207.383 14.8781C207.455 14.9288 207.548 14.9773 207.655 15.0202C207.937 15.1129 208.193 15.2237 208.404 15.344C208.614 15.4644 208.774 15.5911 208.87 15.7144C208.902 15.7653 208.978 15.8194 209.083 15.8657C209.189 15.9121 209.315 15.9472 209.438 15.9642C209.585 15.985 209.717 15.9823 209.806 15.9565C209.895 15.9308 209.934 15.884 209.916 15.8258C209.92 15.7166 209.901 15.6028 209.858 15.4852C209.883 15.4036 209.908 15.322 209.81 15.1869C210.249 15.2362 210.71 15.335 211.142 15.4727C211.574 15.6103 211.962 15.7814 212.263 15.9675C212.596 16.1599 212.902 16.3621 213.271 16.5872C213.195 16.8394 213.195 16.8394 213.979 17.2853L218.141 17.5028L218.994 17.7982C219.789 18.0556 219.978 18.038 220.478 17.9049L220.814 17.7798C221.52 17.9518 222.334 18.1499 222.776 17.8275C222.919 18.0377 223.013 18.1082 222.98 18.1401C222.769 18.4502 222.403 18.7133 221.895 18.919C221.766 18.9671 221.675 19.0405 221.524 19.0834C221.038 19.3255 220.925 19.6997 221.209 20.1293C221.35 20.3194 221.554 20.5141 221.816 20.7071C221.433 20.975 220.926 21.1969 220.308 21.3669C219.783 21.4985 219.351 21.6746 219.024 21.8904C218.731 22.1079 218.291 22.2714 217.731 22.3715C217.446 22.4141 217.239 22.498 217.129 22.6151C217.096 22.9319 217.171 23.2711 217.353 23.6251C217.387 23.7329 217.484 23.8493 217.637 23.9651C217.789 24.081 217.993 24.1932 218.231 24.293C218.231 24.293 218.346 24.3688 218.402 24.4141C218.448 24.7978 218.275 25.1359 217.896 25.4057C217.834 25.4823 217.707 25.5376 217.528 25.5657C217.35 25.5937 217.127 25.5936 216.883 25.5651C216.369 25.5194 215.888 25.5137 215.39 25.4881C214.854 25.4517 214.381 25.4804 214.023 25.5709C213.664 25.6615 213.432 25.8106 213.351 26.0026C213.346 26.057 213.33 26.1091 213.304 26.1584C213.289 26.1839 213.281 26.2112 213.28 26.24L214.423 26.8688L213.13 27.1192C213.054 27.3714 213.674 27.5226 213.986 27.7098L213.793 27.8143C213.546 27.8734 213.212 27.7603 212.91 27.6948L212.611 27.6218L212.575 27.7405C212.388 27.9021 211.708 27.7204 211.443 27.8389C211.177 27.9574 211.367 28.0911 211.764 28.2198C212.041 28.3155 212.338 28.3918 212.633 28.443C212.927 28.4941 213.213 28.5188 213.467 28.5152C213.619 28.5025 213.745 28.4736 213.837 28.4302C214.374 28.2454 214.967 28.0865 215.612 27.9547C216.106 27.8363 216.725 27.786 217.425 27.8072C217.631 27.7983 217.878 27.8263 218.125 27.8864C218.372 27.9464 218.601 28.0347 218.773 28.1356L219.136 28.1523C219.136 28.1523 219.334 28.2563 219.306 28.2734C219.168 28.5817 219.329 28.9586 219.763 29.3482L219.385 29.3835C218.845 29.3474 219.188 29.5822 219.107 29.6978C218.723 29.676 218.224 29.5783 218.042 29.7251L217.769 29.7145L217.876 29.7405L218.006 29.6924L218.514 29.9118C218.273 29.9487 218.099 29.9937 217.886 30.0136C217.768 30.0308 217.675 30.0613 217.611 30.1032C217.547 30.1451 217.514 30.1976 217.514 30.2574C217.514 30.3494 217.451 30.4269 217.33 30.4823C217.208 30.5378 217.033 30.5695 216.821 30.5743C216.568 30.5763 216.423 30.6764 216.274 30.7118L216.919 31.3149C216.919 31.3149 216.598 31.2367 216.773 31.343L216.796 31.2688L217.187 31.4198C217.468 31.5521 217.665 31.5842 217.832 31.4894C217.998 31.3946 217.96 31.5207 218.04 31.4844C218.011 31.5808 217.83 31.6482 217.675 31.7059C217.495 31.7513 217.293 31.7847 217.07 31.8055C217.471 32.2296 217.49 32.2422 216.905 32.3545C216.32 32.4667 216.522 32.6354 216.032 32.6594C215.542 32.6835 216.099 32.9704 216.427 33.0263C216.67 33.0631 216.917 33.1204 217.153 33.1943C217.388 33.2681 217.606 33.3568 217.791 33.4542L217.693 33.7806C217.549 33.7536 217.404 33.7184 217.265 33.6763C216.79 33.4971 216.359 33.3283 215.937 33.4325L216.138 33.6805L214.665 33.5367C214.703 33.7226 214.927 33.9343 215.291 34.1272C215.236 34.2331 215.203 34.3447 215.19 34.461C215.166 34.5426 215.02 34.4912 214.926 34.5001C214.589 34.5137 214.312 34.569 214.12 34.6611C213.928 34.7532 213.826 34.8792 213.825 35.0281C213.787 35.1542 214.305 35.4159 214.63 35.4073C215.439 35.4324 216.314 35.5294 217.208 35.6931C217.753 35.7143 217.83 35.3827 218.727 35.6091C218.745 35.7622 218.63 35.8862 218.4 35.9623C218.17 36.0384 217.837 36.0625 217.451 36.0309C217.67 36.3709 218.884 36.4596 218.938 36.8151C218.636 36.79 218.312 36.7309 218 36.6437C217.688 36.5564 217.398 36.4441 217.158 36.3178C217.106 36.2867 217.041 36.258 216.969 36.2344C216.897 36.2107 216.82 36.193 216.745 36.1827C216.67 36.1724 216.6 36.1699 216.541 36.1755C216.482 36.1811 216.436 36.1946 216.408 36.2147C216.576 36.3432 216.761 36.4918 216.972 36.6307C217.183 36.7697 217.233 36.8298 217.385 36.8589C218.52 37.1352 219.059 37.6329 220.04 37.9595C220.297 38.0221 220.329 38.2209 220.106 38.1985C219.894 38.176 219.702 38.1789 219.552 38.207C219.401 38.235 219.298 38.287 219.254 38.3572C219.09 38.4391 218.885 38.5043 218.644 38.5511C219.651 39.0618 220.851 39.513 222.132 39.8624C222.374 39.9314 222.627 39.9735 222.854 39.9825C223.569 39.983 224.327 40.0236 225.115 40.1033C225.394 40.125 225.652 40.123 225.874 40.0973C226.605 40.0364 227.185 40.1697 227.715 40.5457L228.592 41.1415C228.563 41.238 228.416 41.3454 228.303 41.493L228.988 41.8112L234.217 41.0783L235.266 41.7879L236.772 41.7485C236.887 41.769 237.003 41.7972 237.114 41.8319C237.418 42.0414 237.656 42.2427 237.987 42.4426C238.317 42.6425 238.907 42.6668 239.318 42.9024C239.73 43.1379 240.142 43.1428 240.651 43.2827C240.699 43.4651 240.65 43.6292 240.506 43.7649C240.459 43.9207 240.2 44.0169 240.155 44.1653C240.16 44.3152 240.064 44.4425 239.876 44.5356C239.687 44.6288 239.412 44.6848 239.076 44.6985C238.134 45.0178 236.998 45.2451 235.702 45.3737C235.588 45.383 235.494 45.4046 235.425 45.4371C235.356 45.4696 235.314 45.5123 235.301 45.5625C235.302 45.7081 235.216 45.8338 235.048 45.9306C234.879 46.0274 234.634 46.0927 234.328 46.1219C234.247 46.1277 234.185 46.146 234.151 46.1744C234.036 46.1927 233.951 46.2278 233.906 46.2762C233.861 46.3247 233.858 46.3848 233.896 46.4509C233.934 46.5169 234.012 46.5867 234.122 46.6533C234.233 46.72 234.373 46.7813 234.528 46.8314C234.753 46.9121 234.982 46.9894 235.216 47.0628C235.203 47.1073 234.971 47.1145 235.005 47.1546C235.096 47.2826 235.117 47.4025 235.067 47.5049C235.016 47.6072 234.894 47.6892 234.712 47.7443L235.962 48.7812C236.72 48.9249 237.464 49.1685 238.053 49.4658C238.054 49.5145 238.02 49.5553 237.955 49.5841C237.889 49.613 237.795 49.6289 237.682 49.6302C237.377 49.6514 237.088 49.6927 236.76 49.7161C236.559 49.7337 236.392 49.7722 236.268 49.8296C236.144 49.8869 236.066 49.9619 236.039 50.0501L236.773 50.4359C236.538 50.5299 236.363 50.575 236.208 50.6328C236.296 50.754 236.447 50.8794 236.65 50.9992C236.853 51.1191 237.102 51.2302 237.378 51.3239C237.452 51.3432 237.528 51.3573 237.6 51.3654C237.673 51.3735 237.741 51.3754 237.8 51.371C238.369 51.2387 239.033 51.4723 239.679 51.6933C240.324 51.9142 240.675 52.0474 241.152 52.2192L242.064 52.2423C242.294 52.3236 242.5 52.4193 242.665 52.5216C242.83 52.624 242.948 52.7301 243.012 52.8316C242.962 52.9947 242.53 52.9053 242.272 52.9221C241.661 53.0237 240.857 53.0021 239.993 52.8607C239.779 52.8086 239.56 52.8507 239.352 52.8557C238.902 52.876 238.471 52.9091 238.058 52.9547C237.787 52.9972 237.533 53.0498 237.299 53.1121C237.236 53.3198 238.222 53.4802 237.662 53.5828C237.855 53.6298 237.927 53.6951 238.026 53.6715C238.661 53.8063 239.286 53.873 239.829 53.8638C240.872 53.8351 242.055 53.9298 243.284 54.14C244.609 54.3577 245.881 54.4491 246.994 54.4067C247.418 54.4042 247.891 54.4488 248.379 54.5371C248.955 54.6593 249.526 54.7362 250.057 54.7627C250.232 54.7636 250.428 54.7844 250.628 54.8234C250.828 54.8624 251.026 54.9185 251.207 54.9871C251.191 55.039 251.019 55.0767 251.057 55.102C251.606 55.4905 251.829 55.8951 252.674 56.2921C253.252 56.4329 253.916 56.5945 254.293 56.4078C254.671 56.2212 254.536 56.0608 253.784 55.583C253.947 55.5761 254.144 55.5985 254.339 55.6461C254.535 55.6937 254.717 55.7637 254.854 55.8437L255.504 56.2012L256.091 56.543C256.039 56.7136 255.999 56.8472 255.956 56.9881C255.889 57.1378 255.963 57.32 256.167 57.5092C256.29 57.6125 256.397 57.7158 256.487 57.8182C256.854 58.2277 256.96 58.6147 256.794 58.9359C256.476 59.3977 256.032 59.8226 255.469 60.2058C254.875 60.5785 254.549 61.0486 254.059 61.4548C253.809 61.6397 253.506 61.8055 253.152 61.9504C252.48 62.2725 251.745 62.5791 251.071 62.9086C250.397 63.2382 249.637 63.475 248.889 63.7466C247.775 64.069 246.571 64.3474 245.284 64.5804C244.487 64.7844 243.669 64.9833 242.932 65.2178C242.062 65.4822 241.039 65.6721 239.89 65.7827C238.875 65.9152 237.968 66.111 237.187 66.3665C237.105 66.3941 237.041 66.4293 236.995 66.4709C236.854 66.7315 236.46 66.9151 235.872 66.9938C235.908 67.07 235.954 67.1476 236.009 67.2261C236.091 67.3197 236.108 67.4073 236.058 67.4775C236.008 67.5477 235.894 67.5973 235.73 67.6199C235.26 67.6844 234.869 67.794 234.575 67.9439C234.467 67.9814 234.401 68.0362 234.38 68.1034C234.36 68.1705 234.387 68.2482 234.459 68.3296C234.523 68.4134 234.528 68.4905 234.473 68.5509C234.418 68.6113 234.305 68.6522 234.15 68.6684C233.752 68.7477 233.327 68.8115 232.875 68.8594C231.915 68.9651 230.798 68.9638 229.591 68.8557C229.463 68.8245 229.333 68.8726 229.184 68.8361C228.33 68.715 227.538 68.6962 226.903 68.7821C226.157 68.8155 225.378 68.8089 224.592 68.8245C223.457 68.814 222.41 68.8777 221.48 69.0139C220.417 68.8823 219.82 69.1111 218.922 69.1154C218.094 69.1389 217.309 69.1953 216.574 69.284C215.39 69.4016 214.21 69.5045 213.043 69.6422C211.948 69.7078 210.94 69.8333 210.036 70.0164C209.689 70.0992 209.062 69.9702 208.826 70.1437C208.59 70.3171 208.114 70.2966 207.729 70.3541L206.514 70.4962C206.305 70.53 206.076 70.5515 205.829 70.5602C204.7 70.5718 203.918 70.8033 202.87 70.8506L202.763 70.8245C200.902 71.1687 198.772 71.3577 196.437 71.3857C195.073 71.4913 193.581 71.4863 192.133 71.5636C191.788 71.7184 190.972 71.5277 190.539 71.669C190.106 71.8104 189.399 71.7177 188.84 71.741C188.282 71.7642 187.736 71.8223 187.14 71.8203C186.621 71.821 186.184 71.8841 185.867 72.0039C185.143 72.202 184.26 72.3185 183.259 72.3481C181.934 72.3996 180.681 72.5164 179.334 72.4907C179.353 72.6351 179.27 72.7579 179.094 72.8465C178.918 72.9352 178.655 72.9865 178.331 72.9951C176.891 73.0502 175.584 73.1937 174.124 73.2362L173.733 73.2366L169.366 73.3194C168.19 73.3354 167.056 73.3619 165.856 73.3801C165.407 73.2706 165.396 73.459 165.085 73.4231C164.998 73.3303 164.895 73.2894 164.742 73.3397L164.709 73.451L159.725 73.5986C157.774 73.7065 155.721 73.7389 153.585 73.6955C153.078 73.7064 152.605 73.7432 152.174 73.8055C151.773 73.8282 151.356 73.8382 150.924 73.8355C150.34 73.8075 149.769 73.7934 149.214 73.7932C147.754 73.8356 146.222 73.8127 144.623 73.7816C143.024 73.7505 141.813 73.8058 140.39 73.8015C139.426 73.7977 138.467 73.779 137.469 73.7351C136.993 73.7146 136.406 73.6035 135.913 73.563C135.42 73.5225 135.259 73.5231 135.194 73.5868C134.979 73.7655 134.439 73.65 134.008 73.6325C133.167 73.6028 133.048 73.5419 132.819 73.0801L133.851 72.9334C134.104 72.886 134.422 72.8777 134.775 72.9092C135.128 72.9407 135.503 73.011 135.865 73.1133C136.007 73.1572 136.156 73.1918 136.303 73.2152C136.449 73.2387 136.591 73.2504 136.719 73.2499C137.761 73.2248 138.787 73.1723 139.788 73.1295L139.934 73.1014L139.944 72.6896C139.811 72.6492 139.674 72.6157 139.537 72.5905L134.518 72.3233C133.366 72.2577 132.17 72.1097 131.039 72.0494C129.909 71.989 129.3 71.9521 128.422 71.8897C128.052 71.8541 127.675 71.8074 127.293 71.7499C127.315 71.7102 127.328 71.6681 127.331 71.6238C127.351 71.557 127.378 71.468 127.216 71.3966C127.039 71.2959 126.802 71.2098 126.553 71.1556C126.319 71.1198 126.093 71.0996 125.882 71.0957C124.864 71.0612 123.701 70.8436 122.642 70.4895L122.272 70.7259C120.681 70.5931 119.066 70.4625 117.404 70.3363C117.071 70.302 116.722 70.2359 116.382 70.1432C116.019 70.0546 115.684 69.8696 115.301 69.7683C114.922 69.6954 114.547 69.6386 114.18 69.5988C114.28 69.538 114.41 69.4894 114.568 69.4545C114.724 69.4423 114.838 69.4043 114.892 69.346C114.947 69.2878 114.94 69.2123 114.873 69.1305C114.754 68.9902 114.702 68.8581 114.96 68.8412C115.198 68.8092 115.369 68.7399 115.451 68.6415C115.534 68.5431 115.525 68.4197 115.426 68.2859C115.383 68.2076 115.352 68.131 115.334 68.0565L115.227 68.0304C114.874 67.7534 114.169 67.6533 113.663 67.4265C113.425 67.3608 113.177 67.323 112.961 67.319C112.401 67.2703 111.856 67.249 111.277 67.1877C111.001 67.1594 110.712 67.108 110.427 67.0363C110.02 66.9372 109.977 66.9268 109.741 66.5667C110.108 66.573 110.399 66.5192 110.564 66.4144C110.73 66.3096 110.76 66.1603 110.65 65.9917C110.347 65.6234 110.028 65.2351 108.659 64.9734C109.105 64.9605 109.535 64.9348 109.946 64.8966C110.065 64.8884 110.155 64.8613 110.202 64.8191C110.25 64.7768 110.253 64.7214 110.212 64.6602C110.17 64.599 110.086 64.5349 109.97 64.4766C109.854 64.4183 109.713 64.3685 109.564 64.3338C108.842 64.1255 108.088 63.986 107.388 63.9312C106.798 63.9069 106.266 63.9205 105.577 63.9199L104.763 63.7218C104.777 63.6773 104.657 63.6163 104.688 63.5919C104.894 63.3635 105.122 63.1404 105.357 62.895C104.982 62.7625 104.657 62.6025 104.42 62.4334C104.182 62.2643 104.042 62.0929 104.014 61.9388C103.994 61.8923 103.999 61.85 104.03 61.8147C104.06 61.7795 104.115 61.7522 104.19 61.7349C104.405 61.7051 104.57 61.6482 104.674 61.5685C104.777 61.4889 104.816 61.3886 104.788 61.2754L104.156 60.8586C102.252 60.5612 100.382 60.3487 98.5806 60.2251L96.9547 60.1316C96.7585 60.0201 96.8192 59.9712 97.0039 59.9684C97.1885 59.9656 97.7076 59.9965 98.0701 60.0131C98.3832 60.035 98.6613 60.0206 98.8773 59.9714C99.0934 59.9222 99.2401 59.8398 99.3034 59.7323L98.7575 59.2569C98.7843 59.1679 98.8222 59.0418 99.1183 59.0502C99.3207 59.0399 99.4698 58.9951 99.5415 58.923C99.6132 58.8509 99.6035 58.7558 99.5138 58.6528C99.5002 58.5784 99.5206 58.5106 99.5742 58.4525C100.012 58.4478 100.448 58.4504 100.845 58.4277C101.03 58.4202 101.186 58.3926 101.303 58.3469C101.42 58.3012 101.495 58.2384 101.522 58.1627C101.537 58.0889 101.502 58.0047 101.42 57.9171C101.339 57.8296 101.213 57.7409 101.054 57.6584C100.431 57.5564 99.8615 57.5551 99.4699 57.6548C99.3303 57.7329 99.1061 57.7756 98.8267 57.7772C98.5473 57.7788 98.226 57.7393 97.905 57.6638C97.5376 57.5767 97.1708 57.5385 96.8708 57.5559C96.5708 57.5733 96.3572 57.6452 96.2683 57.7588C95.8911 57.7146 95.5567 57.6809 95.2267 57.6324C94.8375 57.5712 94.4695 57.5532 94.1627 57.5803C93.6717 57.5994 93.1427 57.5882 92.5876 57.5469C90.9875 57.4438 89.3853 57.3481 87.8361 57.3052C87.4262 57.2929 87.0717 57.326 86.6663 57.2989C86.2609 57.2718 85.9403 57.345 85.4333 57.1976C85.3368 57.1747 85.2396 57.16 85.1495 57.1547C85.0594 57.1493 84.9789 57.1534 84.9142 57.1668C84.024 57.2833 82.9803 57.2998 81.8442 57.2152C80.2883 57.1945 78.6749 57.1359 77.1167 57.1226C76.6597 57.134 76.2278 57.1647 75.8256 57.2142C75.5195 57.2441 75.1989 57.2644 74.8654 57.2749C74.6099 57.2843 74.3655 57.2566 74.4086 57.4184C74.4517 57.5802 74.0688 57.479 73.848 57.4491C73.0897 57.3706 72.3146 57.2645 71.5315 57.1317C70.7599 56.9874 70.0038 56.9034 69.3086 56.8848C68.8065 56.874 68.2887 56.915 67.6431 56.6941C67.6677 56.6125 67.6923 56.5309 67.8328 56.4457C67.3063 56.2112 66.7056 56.0095 66.0804 55.8572C65.4552 55.7049 64.8234 55.6064 64.2373 55.5698L63.4291 55.1261C63.2301 55.074 63.0269 55.0361 62.832 55.0146C62.637 54.9931 62.4544 54.9885 62.2951 55.0012C62.172 55.0076 62.022 54.9911 61.8726 54.9547C61.7232 54.9183 61.5844 54.8645 61.4818 54.8031C61.3283 54.7249 61.1409 54.6575 60.9429 54.6093C60.7449 54.5611 60.5453 54.5342 60.3689 54.532C59.8136 54.4837 59.2208 54.3723 58.6513 54.2091C58.5035 54.1135 58.4109 54.0146 58.3849 53.9248C58.3589 53.835 58.4007 53.7581 58.505 53.7037C58.6732 53.6075 58.7677 53.485 58.7827 53.3436C58.7977 53.2022 58.7328 53.0448 58.5921 52.8809C58.5201 52.7803 58.496 52.685 58.5213 52.6009C58.5467 52.5167 58.621 52.4454 58.7396 52.3913C59.1827 52.1409 59.0641 52.0005 58.3393 51.5851C58.2216 51.5158 58.0796 51.4511 57.9225 51.395C57.7654 51.3389 57.5966 51.2927 57.4267 51.2593C57.0281 51.1916 56.6349 51.1412 56.2544 51.1091C56.0404 51.0569 55.8209 51.099 55.5743 51.0788C54.3413 50.9775 54.1608 50.8141 53.7615 50.462L53.4705 50.208C52.9307 50.0022 52.3404 49.8313 51.7421 49.7076C51.1438 49.5839 50.5524 49.5104 50.0104 49.4925C49.795 49.4912 49.5473 49.456 49.3054 49.3925C48.5181 49.1981 47.7207 49.0636 46.9662 48.9978C46.496 48.9608 45.9892 48.8651 45.5065 48.7221C45.0239 48.5791 44.586 48.395 44.2455 48.1918C43.9397 48.0087 43.5395 47.8444 43.1007 47.7218C42.587 47.5967 42.5395 47.4497 42.8263 47.3364C43.1131 47.2232 43.5935 47.0774 44.02 46.9584C44.1683 46.9179 44.2603 46.8521 44.2855 46.7682C44.3108 46.6844 44.2684 46.5859 44.163 46.4836C44.0954 46.3086 44.0836 46.1425 44.1281 45.9894C44.1519 45.9258 44.1355 45.8528 44.08 45.7754C44.0245 45.6981 43.9312 45.6181 43.8064 45.5409C43.6816 45.4637 43.5283 45.3911 43.3566 45.328C43.185 45.2649 42.999 45.2127 42.8114 45.1749C42.0195 44.9821 41.249 44.7944 40.4415 44.6534C40.1031 44.587 39.765 44.5046 39.4356 44.4084C38.7613 44.1704 38.0399 43.973 37.3133 43.8277C36.9684 43.7627 36.6313 43.6491 36.3748 43.5115C35.5658 43.1407 34.8204 42.7508 34.152 42.349C33.991 42.2243 33.7802 42.1027 33.5329 41.9918C33.2857 41.8809 33.0073 41.783 32.7152 41.7044C32.4798 41.647 32.2882 41.5207 32.1067 41.4367C31.9749 41.2421 31.9608 41.0621 32.0658 40.9136C32.1708 40.7651 32.3915 40.6529 32.7071 40.5876C33.0064 40.5092 33.2865 40.4182 33.5453 40.322C33.8572 40.2442 34.2279 40.1975 34.6438 40.1835C35.1364 40.1417 35.5006 40.0224 35.689 39.8409C34.3406 39.5125 33.0584 39.0409 31.8765 39.1511L30.9785 38.8527C31.0143 38.734 31.0456 38.6302 31.0747 38.5338C31.2882 38.3582 31.3549 38.1368 31.2691 37.8884C31.1984 37.7682 31.2048 37.6588 31.2876 37.5713C31.3705 37.4838 31.5268 37.4213 31.7409 37.3902C33.009 37.07 34.4755 36.854 35.6647 36.4907C36.0375 36.4225 36.474 36.3915 36.9557 36.3991C37.4218 36.3773 37.4023 36.2133 36.866 36.011C36.5649 35.9052 36.2581 35.8039 35.9466 35.7074C34.5731 35.6913 34.0135 36.1761 32.4461 36.0411L31.7196 35.4023C31.5231 35.3924 31.3324 35.3885 31.1488 35.3907L28.5206 35.6502C28.3017 35.6632 28.1313 35.7076 28.0287 35.7784C27.9262 35.8491 27.8956 35.9433 27.9405 36.0504C27.9583 36.1813 27.9221 36.3015 27.8332 36.4064C27.7759 36.4799 27.8126 36.5776 27.9352 36.6781C28.2115 36.9047 27.857 36.9378 27.633 36.9947C27.5758 37.0002 27.5098 36.9997 27.4389 36.9929C27.368 36.9862 27.2935 36.9735 27.2198 36.9556C27.1462 36.9376 27.0748 36.9148 27.0098 36.8884C26.9448 36.862 26.8875 36.8326 26.8412 36.8018C26.4467 36.5863 26.1016 36.3589 25.7138 36.1211C25.9891 35.8935 25.6652 35.52 26.0948 35.3141C26.1429 35.273 26.1621 35.2229 26.1513 35.1669C26.1406 35.1108 26.1 35.0501 26.0322 34.9883C25.8572 34.8289 25.7739 34.6735 25.7906 34.5378C25.8073 34.402 25.9234 34.2908 26.1273 34.2152L26.1519 34.1336C25.6143 33.8594 25.7567 33.6154 25.5455 33.325L25.0284 33.1354C23.7417 32.6786 23.7394 32.686 22.6317 32.7028C22.4084 32.529 22.6921 32.5026 22.9048 32.4827L24.6865 32.2877C25.8515 32.1574 27.0503 32.0672 28.3516 32.0179C29.653 31.9687 31.1038 31.8045 32.4489 31.6863C32.5169 31.6771 32.5689 31.659 32.6006 31.6334C32.6322 31.6079 32.6426 31.5757 32.6309 31.5395C32.5774 31.5003 32.5075 31.4626 32.4261 31.429C32.3448 31.3954 32.2542 31.3668 32.161 31.3454C31.7329 31.2411 31.2938 31.174 30.8376 31.0867L29.9873 30.9353L29.7257 30.7362C29.5554 30.6151 29.4391 30.4674 29.2126 30.3804C29.0259 30.3154 28.8233 30.2662 28.6259 30.2377C28.4284 30.2092 28.2433 30.2025 28.0898 30.2183C27.6644 30.258 27.2794 30.3155 26.8731 30.3679C26.4668 30.4202 26.2429 30.4771 25.8906 30.5028C25.1747 30.5144 24.4829 30.5453 23.8182 30.5951C23.2582 30.7131 22.7403 30.8529 22.2677 31.0137C21.9729 31.0772 21.6972 31.1534 21.1938 31.0706C20.9549 30.9955 20.7489 30.8969 20.6123 30.7921C20.4756 30.6874 20.4171 30.5834 20.4472 30.4986C20.4742 30.4321 20.5507 30.3795 20.6694 30.3457C20.7881 30.3119 20.9451 30.2981 21.1256 30.3055C21.631 30.2933 22.0983 30.2521 22.5181 30.1829C23.1024 30.0574 23.8138 30.0033 24.6106 30.0237C24.8808 30.0418 25.062 29.9744 25.2983 29.9524C25.5347 29.9303 25.735 29.8756 25.9985 29.9159C26.8172 30.0198 27.2097 29.8606 27.7004 29.7572C27.8665 29.7113 27.9694 29.6372 27.9978 29.543C28.0262 29.4487 27.979 29.338 27.8613 29.2231C27.6349 28.9941 27.3579 28.7639 27.0346 28.536C26.8683 28.424 26.6551 28.3176 26.4119 28.2252C26.1687 28.1328 25.902 28.0569 25.6329 28.0034C25.4718 27.8632 25.3858 27.7253 25.3828 27.6023C25.3798 27.4792 25.4598 27.3748 25.6156 27.2985C26.0126 27.1245 26.3646 26.9475 27.2542 27.0447C27.6725 27.0819 28.0661 27.089 28.4195 27.0658C29.2032 27.0341 30.1073 27.1036 31.0465 27.2678C31.2895 27.3099 31.5283 27.3386 31.7559 27.353C33.3796 27.4539 34.9266 27.5043 36.478 27.5398C37.2999 27.5569 38.1285 27.5517 38.9865 27.6015C40.9986 27.7094 42.8302 27.6539 44.7723 27.689C45.7894 27.7071 46.6998 27.6344 47.4558 27.4748C47.603 27.4213 47.7294 27.3588 47.8336 27.2882C47.3327 27.1027 46.7824 26.9558 46.2356 26.8617C45.6887 26.7675 45.1636 26.7292 44.7106 26.7503C44.4615 26.8023 44.1395 26.8118 43.7807 26.7778C43.4218 26.7438 43.0401 26.6676 42.678 26.5578L43.7306 26.4957C44.4285 26.4667 45.1434 26.4577 45.8221 26.416C46.9005 26.3442 47.9 26.2294 49.0167 26.1829C49.9183 26.1401 50.725 26.0309 51.4117 25.8586C51.9078 25.7329 52.4743 25.6437 53.0999 25.593C53.5445 25.5659 53.5445 25.5659 53.8288 25.3087C53.6032 25.1423 53.3116 25.119 53.0369 25.1158C51.39 25.0111 49.8227 24.9928 48.3669 25.0611C47.6324 25.0672 46.9807 25.1377 46.4433 25.2694C46.3117 25.3249 45.975 25.2986 45.7048 25.2806C44.8576 25.2531 44.0479 25.2611 43.2855 25.3044C42.2313 25.3765 41.0572 25.3594 39.8088 25.2537C39.5721 25.1244 39.8445 25.135 39.858 25.0905C40.8248 25.0076 41.7726 24.912 42.7587 24.8416C43.0282 24.8166 43.3164 24.8041 43.6198 24.8046C44.7528 24.8482 45.6969 24.7273 46.3199 24.459C46.3512 24.3551 46.761 24.3674 46.9421 24.3C47.0313 24.2417 47.0906 24.1731 47.1184 24.0961C46.8546 23.9044 46.5562 23.9034 46.3266 23.9032C45.6601 23.9246 45.019 23.9652 44.4062 24.0247C43.8366 24.0813 43.2061 24.0965 42.5318 24.0697C42.0341 24.044 41.6086 24.0837 41.1065 24.0729C40.8341 24.0501 40.5522 24.0135 40.2664 23.9638C40.5846 23.8302 41.0171 23.748 41.5336 23.7231C41.9252 23.6433 42.4149 23.6192 42.4774 23.4115C42.2925 23.2629 42.0864 23.2605 41.921 23.276C41.5766 23.2754 41.2439 23.2848 40.9247 23.304C40.2479 23.3462 39.5151 23.3468 38.7417 23.3057C38.3345 23.2904 37.948 23.295 37.5889 23.3195C36.775 23.3522 35.995 23.4249 35.2497 23.4584C33.7232 23.4926 32.3309 23.6153 30.8641 23.68C30.5376 23.6961 30.245 23.7522 29.8147 23.6553C29.3844 23.5585 29.3653 23.5458 29.3145 23.4857C29.1941 23.3854 29.1576 23.2881 29.2126 23.214C29.2979 23.1449 29.4642 23.1064 29.6818 23.1054C30.993 22.9954 32.2367 22.8409 33.405 22.6428C33.9192 22.6031 34.3697 22.5222 34.7408 22.4028C35.0352 22.3206 35.3843 22.2662 35.7773 22.2412C36.3489 22.1818 36.9448 22.1383 37.5626 22.1108C37.8501 22.096 38.0945 22.052 38.2815 21.9813C38.4685 21.9106 38.5943 21.8147 38.6515 21.6992L37.8941 21.3157C37.7751 21.2978 37.6571 21.2823 37.5405 21.2693L31.2545 21.5456L30.632 21.5532C29.9497 21.5303 29.7829 21.4738 29.1357 21.0295C30.6128 20.9249 31.7739 20.6203 32.5034 20.1458C32.3281 20.0948 32.1483 20.051 31.9683 20.0155C30.7879 19.9033 29.6721 19.8735 28.6638 19.9272C28.0649 19.9326 27.4491 19.9179 26.831 19.9107C27.0117 19.692 27.7042 19.7571 28.1556 19.7078C29.234 19.6307 30.1877 19.4713 30.986 19.2348C31.2613 19.1425 31.6056 19.0836 32.0033 19.0606C32.4013 19.0526 32.7338 18.9968 32.9718 18.898C33.2098 18.7991 33.3461 18.6602 33.3688 18.4934C33.4063 18.3423 33.4871 18.202 33.61 18.0744C33.3926 17.8934 33.0474 17.72 32.6392 17.5869C32.2309 17.4537 31.7878 17.3699 31.3928 17.3512C30.5496 17.2766 29.675 17.1546 28.7913 16.9882C28.3511 16.9043 27.9195 16.8561 27.5245 16.8468C27.1761 16.8397 26.7801 16.7791 26.3969 16.6742C26.0137 16.5694 25.6644 16.4261 25.4021 16.2661C25.0482 16.0684 24.7178 15.8685 24.3875 15.6686C24.0572 15.4687 23.6739 15.2161 23.2884 14.9709C22.9484 14.9325 22.6174 14.9079 22.2997 14.8973C22.0526 14.9063 21.7642 14.8795 21.4687 14.8202C21.1731 14.7609 20.8826 14.6715 20.6316 14.5626C20.7789 14.4551 20.9453 14.3603 21.1207 14.2358C20.88 14.0714 20.7054 13.9038 20.6077 13.7431C20.51 13.5824 20.4912 13.432 20.5523 13.3011C20.5881 13.1824 20.3264 12.9833 20.236 12.8259C20.1196 12.6903 20.0978 12.5637 20.1733 12.4627C20.2488 12.3617 20.4182 12.2911 20.6592 12.2602C20.9582 12.2031 21.2015 12.117 21.3792 12.0056C21.438 11.9767 21.4679 11.937 21.4662 11.8904C21.4645 11.8437 21.4313 11.7914 21.3696 11.7384C21.3079 11.6853 21.2197 11.6332 21.113 11.5867C21.0063 11.5402 20.8845 11.5009 20.7588 11.4723C20.3738 11.3912 19.9915 11.3387 19.6338 11.3176C19.0175 11.279 18.4275 11.2547 17.8638 11.2448C17.2404 11.2299 16.5469 11.1379 15.8536 10.9781C15.233 10.8269 14.6765 10.6914 14.373 10.4024C14.0696 10.1135 13.5843 10.1227 13.2112 9.91241C13.4208 9.72282 13.7933 9.59109 14.2912 9.53052C14.617 9.50889 14.8889 9.45214 15.0896 9.3639C15.2903 9.27565 15.4152 9.15787 15.4564 9.0181L14.3237 8.43163C13.419 8.15552 12.9185 8.36803 11.941 8.25733L12.9482 8.04083C12.9684 8.01943 12.976 7.99431 12.9705 7.96665C12.8728 7.52878 12.7172 7.43514 11.6876 7.19232L11.1098 7.05156L10.1952 6.88452C10.0488 6.79478 9.94748 6.7012 9.90145 6.61313C9.85542 6.52506 9.86627 6.4456 9.93296 6.38269C10.0669 6.27688 10.1077 6.14168 10.0514 5.98952C9.96273 5.88873 9.95541 5.79582 10.0307 5.7269C10.1061 5.65798 10.2593 5.6174 10.4638 5.61222C10.627 5.60421 10.6391 5.48772 10.7279 5.42176C10.8162 5.33085 10.9672 5.26109 11.1707 5.21723C11.3742 5.17337 11.6253 5.15642 11.9072 5.16756C12.7381 5.17666 13.5188 5.14254 14.2352 5.06579L14.1067 5.03451C14.8535 5.10189 15.5516 5.11006 16.167 5.05863C16.7839 4.99389 17.5754 5.03542 18.2306 4.99594C18.7639 5.005 19.17 4.9154 19.3626 4.74616C19.5491 4.58457 20.2269 4.62228 20.746 4.65318C21.0535 4.67315 21.3507 4.68162 21.6344 4.67847C22.0152 4.6419 22.4913 4.67638 22.9833 4.77615C23.131 4.80682 23.2764 4.82305 23.4056 4.82329C24.6565 4.86523 25.9051 4.91457 27.139 4.93647C27.4239 4.92386 27.7579 4.95273 28.1018 5.0197C28.2464 5.04877 28.3871 5.06081 28.505 5.0542C30.4547 4.9877 32.6549 5.15737 34.5664 5.06561C34.798 5.04394 35.0545 5.03943 35.3286 5.05221C35.9443 5.10612 36.4791 5.07142 36.8516 4.9534C37.0526 4.89064 37.3102 4.85605 37.6081 4.85184C37.9061 4.84764 38.2377 4.87392 38.5819 4.929C39.1547 5.00193 39.6841 5.00984 40.1142 4.95189C40.9528 4.89835 41.8347 4.87635 42.753 4.88602C43.0343 4.89539 43.2817 4.87459 43.4758 4.82522C43.67 4.77586 43.8057 4.69925 43.8725 4.60135C43.647 4.43494 43.4004 4.41469 43.1663 4.42931C42.2588 4.39139 41.3535 4.34605 40.4629 4.32819C39.6658 4.27714 38.901 4.26153 38.1797 4.2816C37.8215 4.30424 37.3746 4.25262 36.9364 4.13801C36.3995 3.99287 35.8464 3.92075 35.3891 3.93627C35.05 3.94012 34.6921 3.92762 34.3206 3.89894C34.0828 3.86437 33.8391 3.80499 33.6144 3.72691C33.5252 3.693 33.4281 3.66448 33.3294 3.64319C33.2307 3.6219 33.1326 3.60831 33.0411 3.60327C32.9497 3.59823 32.867 3.60185 32.7984 3.61392C32.7297 3.62598 32.6768 3.64623 32.6427 3.67335C32.2987 3.90009 31.5295 3.78438 30.8708 3.7593C29.8837 3.37553 29.1491 3.60268 28.2266 3.38592C28.1537 3.37155 28.0817 3.36284 28.0153 3.36036C27.949 3.35787 27.8894 3.36166 27.8404 3.37146C26.0551 3.50193 23.9744 3.3932 22.1 3.43826C21.8933 3.44484 21.6533 3.42226 21.4075 3.37308C19.8006 3.04756 18.2557 2.95514 17.0747 3.11391C16.931 3.1282 16.7676 3.12882 16.5917 3.1157C15.7843 2.98633 15.0122 2.93475 14.3398 2.96527C13.286 2.95541 12.2728 2.9634 11.2021 2.9335C10.464 2.89094 9.81647 2.93641 9.32443 3.06535C9.30879 3.11728 8.98103 3.06132 8.72996 3.0559C8.58557 2.92518 8.46038 2.8071 8.31152 2.69121C8.17844 2.54784 7.9791 2.40275 7.72706 2.2658C7.47502 2.12884 7.1762 2.00322 6.85072 1.89743C6.29427 1.76188 6.23862 1.56518 6.62799 1.49282C7.63161 1.2534 8.8936 1.15541 10.3212 1.20603C11.5146 1.21008 12.7294 1.21935 13.9397 1.24345C14.6456 1.26412 15.3898 1.31004 16.0766 1.31807C16.3084 1.33574 16.5464 1.36177 16.7883 1.39589C17.0851 1.44537 17.3733 1.47232 17.6374 1.47531C18.4852 1.43365 19.4314 1.46995 20.4308 1.58247C20.7969 1.607 21.1484 1.61527 21.4801 1.60715C22.2649 1.57661 23.1157 1.59908 24.0099 1.67399C24.5658 1.71622 25.1047 1.73831 25.6212 1.74001C25.8036 1.74462 25.9521 1.70914 26.1278 1.73602C27.6742 2.01715 28.7691 1.81409 30.1609 1.92219C30.8373 1.95233 31.4835 1.95242 32.0905 1.92245C33.2751 1.9239 34.4927 1.95472 35.7384 2.01479C37.3857 2.11348 38.9122 2.07924 40.4851 2.11998C40.7956 2.12854 41.0954 2.12709 41.3824 2.11561C42.7782 2.03977 44.2943 2.05585 45.8937 2.16346C46.2568 2.17901 46.583 2.16 46.8518 2.10764C47.1205 2.05528 47.3261 1.97069 47.4556 1.85916C47.5104 1.78261 47.4749 1.6832 47.3559 1.58008C47.1585 1.44839 46.9356 1.31936 46.6909 1.19512L37.788 0.77822C37.4141 0.756448 37.0495 0.74473 36.6959 0.743109C35.6562 0.739484 34.5844 0.70705 33.486 0.645972C32.4006 0.588599 31.3637 0.598783 30.3121 0.581511C30.0024 0.575725 29.6845 0.56207 29.3596 0.540589C27.164 0.370586 25.0231 0.266749 22.9519 0.229828C22.0805 0.224588 21.1391 0.146565 20.2508 0.121279C19.3625 0.0959889 18.1477 0.0867309 17.0939 0.0768744L13.8313 0.0783876C13.1896 0.0733542 12.5647 0.0883666 11.9422 0.0959686C11.1867 -0.446382 10.9263 -0.573505 9.9182 -0.811117C9.57331 -0.898765 9.2225 -0.951071 8.9069 -0.96191C7.90614 -0.919036 6.65045 -1.09751 5.70143 -1.07388C5.12879 -1.08553 4.64287 -1.02529 4.29343 -0.899296C3.99008 -0.80042 3.64321 -0.722181 3.25816 -0.665764C2.20336 -1.12973 2.11041 -1.43106 2.90385 -1.54833C3.11882 -1.57559 3.41493 -1.56716 3.57017 -1.62489C3.65924 -1.66005 3.78092 -1.68017 3.92551 -1.68364C4.0701 -1.68711 4.2336 -1.67387 4.4032 -1.64492C4.93845 -1.569 5.44013 -1.55114 5.8579 -1.59315C6.25108 -1.64874 6.73303 -1.64653 7.25728 -1.58669C7.64252 -1.49285 7.98113 -1.62536 8.31429 -1.66364C8.64744 -1.70193 8.92085 -1.7707 9.4412 -1.66783C9.53649 -1.64735 9.63109 -1.63505 9.71775 -1.63188C9.8044 -1.62872 9.88081 -1.63477 9.94111 -1.64957C10.5 -1.71582 11.1669 -1.70886 11.8877 -1.62925C12.9932 -1.55092 14.0305 -1.54799 14.9635 -1.62054C15.522 -1.68403 15.9982 -1.79661 16.3734 -1.95391C16.4757 -2.00652 16.6276 -2.03807 16.8145 -2.04552C17.7532 -2.01271 18.7725 -1.88919 19.8066 -1.68294C20.1962 -1.6003 20.5853 -1.53494 20.9655 -1.48823C21.7471 -1.38448 22.5029 -1.32635 23.2108 -1.31554C24.2394 -1.31383 25.3103 -1.27391 26.414 -1.19615C27.0952 -1.15285 27.7515 -1.13687 28.3753 -1.14838C29.0164 -1.15381 29.7009 -1.12078 30.4133 -1.05007C31.1217 -0.992443 31.746 -1.02564 32.211 -1.14565C32.3641 -1.21032 32.4874 -1.28711 32.5786 -1.3746C31.5413 -1.65927 30.4686 -1.80394 29.5763 -1.77949C29.2374 -1.79834 28.9559 -1.77931 28.5988 -1.89019L28.5876 -1.8531C28.5166 -1.82903 28.4093 -1.82335 28.2864 -1.83715C28.1635 -1.85094 28.0334 -1.88324 27.921 -1.9279C27.9635 -2.06884 28.0037 -2.20236 28.0328 -2.2988C28.7126 -2.28179 29.3727 -2.28316 30.0097 -2.30294C30.5467 -2.3314 31.2756 -2.08217 31.7404 -2.17598C32.6469 -2.05867 33.2241 -2.22065 34.0371 -2.17391C34.85 -2.12717 35.7454 -1.97276 36.5583 -1.92602C37.2677 -1.90037 37.9565 -1.8948 38.6209 -1.90932C38.8502 -1.92971 39.1145 -1.92493 39.3977 -1.89527C39.7958 -1.83946 40.166 -1.83011 40.466 -1.86829C40.766 -1.90647 40.9835 -1.99064 41.0938 -2.11115C40.99 -2.22403 40.8501 -2.36958 40.6888 -2.52035C40.9856 -2.64424 41.4363 -2.69641 41.9741 -2.66909L42.7341 -2.67507C42.9354 -2.6718 43.0894 -2.70529 43.164 -2.76862C43.2387 -2.83194 43.2284 -2.92025 43.1352 -3.01529C41.6942 -3.4937 41.6412 -3.54644 40.5836 -3.23872L39.1794 -3.38171L39.203 -3.38391ZM58.1963 -2.06972L58.0893 -2.09578L58.1963 -2.06972ZM233.19 48.8307L233.166 48.9123L233.192 48.8233L233.428 48.8806L233.443 48.8287L233.19 48.8307ZM199.009 13.0654C198.676 12.9763 198.34 12.8945 198.003 12.8203C197.915 12.8088 197.832 12.8062 197.762 12.8128C197.692 12.8193 197.637 12.8347 197.601 12.8578C197.574 12.9468 197.763 13.0086 197.934 13.0503C198.15 13.1064 198.37 13.1421 198.573 13.1536C198.775 13.1652 198.952 13.1521 199.086 13.1159L199.279 13.0834L199.009 13.0654ZM27.6168 34.7612C27.8359 34.7762 28.0437 34.7786 28.235 34.7685C29.0837 34.6965 29.8962 34.5919 30.7663 34.5251C31.8642 34.3557 33.1258 34.2867 34.5036 34.3208C35.042 34.3374 35.4967 34.2825 35.8149 34.1624C36.0054 34.098 36.2512 34.0603 36.5374 34.0518L40.1801 33.8562C40.4053 33.8156 40.6 33.7587 40.7596 33.6868C40.4386 33.6086 40.2245 33.5565 40.0961 33.5252C39.8297 33.5164 39.6007 33.5402 39.432 33.5943C39.2509 33.686 38.9447 33.7223 38.5744 33.6959C38.2004 33.6742 37.8358 33.6625 37.4823 33.6608C36.8147 33.6654 36.1425 33.6848 35.4727 33.6969C35.2121 33.9519 34.4429 33.8362 33.7842 33.8111L33.2754 33.8225C31.6121 33.9547 30.0233 34.1366 28.5166 34.3673C28.2254 34.4063 27.9746 34.4686 27.7717 34.5521C27.6953 34.6173 27.6709 34.6985 27.7002 34.7895L27.5932 34.7634L27.6168 34.7612ZM101.893 59.1447C102.296 59.1621 102.716 59.1977 103.147 59.2512C103.479 59.3058 103.803 59.3389 104.105 59.3493C105.802 59.4064 107.57 59.5385 109.385 59.7436C109.622 59.7747 109.851 59.7899 110.061 59.7887L111.547 59.7366C112.015 59.7074 112.024 59.6777 111.683 59.2841C111.4 59.2078 111.114 59.1381 110.827 59.0756C110.656 59.0339 110.378 58.9661 110.312 59.0299C109.915 59.2039 109.191 59.0912 108.582 59.0543C106.819 58.9592 105 58.8188 103.22 58.7037C102.844 58.6755 102.479 58.6613 102.13 58.6611C101.914 58.6552 101.716 58.6663 101.546 58.694C101.496 58.6968 101.455 58.7051 101.424 58.7182C101.393 58.7313 101.374 58.7489 101.368 58.77C101.361 58.791 101.368 58.815 101.387 58.8402C101.406 58.8655 101.438 58.8915 101.479 58.9165C101.625 59.0042 101.793 59.0881 101.978 59.1656L101.893 59.1447ZM114.809 2.0224L116.546 1.97574C116.755 1.97073 116.931 1.91821 117.154 1.94068C118.344 2.01186 119.445 1.99203 120.411 1.88203C120.74 1.83714 121.125 1.82817 121.545 1.8556C122.83 1.93689 124.042 1.94023 125.149 1.86554C125.864 1.85055 126.533 1.8002 127.147 1.71523C127.194 1.69551 127.223 1.66874 127.233 1.63673C127.243 1.60473 127.232 1.56825 127.202 1.52978C127.195 1.50548 127.174 1.47934 127.141 1.45316C127.108 1.42698 127.064 1.40137 127.012 1.37813C126.96 1.35488 126.901 1.33453 126.84 1.31848C126.778 1.30243 126.716 1.29106 126.656 1.28516C125.881 1.17015 125.145 1.13009 124.509 1.16822C123.919 1.21383 123.283 1.22718 122.613 1.20805C121.971 1.20302 121.536 1.35177 120.743 1.23827C120.408 1.20089 120.112 1.2132 119.905 1.27312C119.49 1.37245 118.911 1.37797 118.27 1.28871C117.886 1.24354 117.52 1.22417 117.184 1.23133C116.37 1.26399 115.592 1.32933 114.838 1.39246C114.601 1.40706 114.346 1.40908 114.078 1.39846L110.302 1.27484C109.395 1.23692 108.489 1.19158 107.599 1.17371C106.87 1.1349 106.193 1.14706 105.589 1.20974C104.946 1.27562 104.244 1.30236 103.498 1.28947C102.338 1.32552 101.185 1.33931 99.9233 1.33446C99.1183 1.33744 98.2943 1.3278 97.4532 1.29811C97.0277 1.25988 96.6665 1.29101 96.439 1.38549C96.3007 1.46328 95.9752 1.39991 95.705 1.38186C94.2636 1.20786 92.9118 1.16664 91.7441 1.26105C91.595 1.27643 91.4313 1.282 91.2566 1.27766C90.1319 1.27442 88.9666 1.25333 87.887 1.2531C87.6027 1.26043 87.3352 1.28056 87.0878 1.31322C87.1143 1.36652 87.1898 1.42427 87.2987 1.47452C87.4076 1.52477 87.5415 1.56366 87.6727 1.58311C88.6938 1.73199 89.6798 1.81064 90.5891 1.81576C92.1027 1.79679 93.6882 1.83943 95.3291 1.94322C96.6023 2.04786 97.7632 2.02583 98.7255 1.87877C99.4778 1.76904 100.456 1.81032 101.493 1.99554C101.937 2.08399 102.367 2.11936 102.726 2.09682C103.071 2.06723 103.467 2.07441 103.891 2.11791C104.785 2.20063 105.644 2.239 106.453 2.23227C107.243 2.20182 107.98 2.11863 108.792 2.0934C109.604 2.06816 110.84 2.08262 111.841 2.03975C112.841 1.99687 113.831 1.9911 114.809 2.0224ZM42.8328 -2.31659C42.9245 -2.08723 43.2491 -1.94446 43.5982 -1.8833C44.8019 -1.61173 45.9919 -1.49617 46.9685 -1.55601C47.496 -1.63948 48.1992 -1.60735 48.94 -1.46593C49.8025 -1.31893 50.6087 -1.29455 51.2165 -1.39709C51.3654 -1.41501 51.4794 -1.45289 51.5484 -1.50735C51.5618 -1.55186 51.5864 -1.63346 51.5909 -1.64829C51.527 -1.68592 51.4487 -1.72078 51.362 -1.75019C51.2752 -1.7796 51.1824 -1.80277 51.0907 -1.81792L47.1036 -2.08048L46.4088 -2.13826C45.1397 -2.28963 43.9304 -2.34993 42.8328 -2.31659ZM50.6754 1.31373C51.2977 1.68827 51.2999 1.68083 51.6187 1.76645C53.1566 2.12209 54.6936 2.31406 56.0466 2.31954C56.3473 2.31845 56.6025 2.2823 56.7906 2.21412C56.8874 2.20488 56.949 2.17552 56.9619 2.13244C56.9749 2.08936 56.9382 2.03606 56.8599 1.98416L56.3651 1.7203C55.4664 1.60607 54.5807 1.5153 53.7132 1.44855C52.7031 1.36973 51.808 1.36668 50.761 1.33457L50.6754 1.31373ZM101.818 57.4862C102.398 58.0017 102.4 57.9943 103.371 58.1273C104.047 58.2215 104.703 58.2768 105.32 58.2915C106.073 58.3078 106.846 58.3367 107.597 58.3604C107.78 58.3768 107.935 58.3632 108.033 58.3221C108.13 58.2811 108.162 58.2155 108.123 58.1382C108.024 58.0544 107.87 57.9732 107.686 57.908C107.501 57.8427 107.296 57.7973 107.105 57.7789L106.696 57.7667C106.198 57.741 105.681 57.7027 105.2 57.6971C104.888 57.7184 104.527 57.7019 104.145 57.6488C103.762 57.5956 103.369 57.5074 102.995 57.3908L101.818 57.4862ZM53.7716 -1.64261C53.9264 -1.55334 54.1015 -1.46784 54.2923 -1.38838C55.0308 -1.16815 55.8124 -1.04307 56.4839 -1.03766C56.8014 -1.02401 57.0918 -1.07272 57.415 -1.00194C57.9948 -0.907353 58.5567 -0.85697 59.0704 -0.853515C59.0704 -0.853515 59.2144 -0.874169 59.2617 -0.878578L59.36 -1.20497C59.1169 -1.28058 58.8633 -1.34236 58.6109 -1.38744C57.7641 -1.47428 56.932 -1.53365 56.1022 -1.60044C55.2723 -1.66723 54.9829 -1.69791 54.4402 -1.72659C54.1981 -1.71083 53.9742 -1.68269 53.7716 -1.64261ZM35.4336 38.9347L36.5418 39.6027C36.9004 39.6608 37.2354 39.6713 37.4958 39.6327C37.7563 39.5941 37.9279 39.5085 37.9846 39.3888C38.0758 39.3329 38.085 39.25 38.01 39.1575C37.9351 39.065 37.782 38.9702 37.5827 38.8928C37.3909 38.8012 37.172 38.719 36.9395 38.6514C36.7069 38.5838 36.4657 38.5322 36.2309 38.4998L35.4336 38.9347ZM44.6602 35.6084C43.9354 35.4951 43.2422 35.4488 42.6335 35.473C42.25 35.5393 41.7303 35.5181 41.1811 35.4138C40.1822 35.206 39.2194 35.1485 38.4956 35.2534C38.4956 35.2534 38.4688 35.3424 38.3461 35.3682C38.2235 35.3941 38.71 35.4569 38.817 35.4829C39.6018 35.5467 40.3911 35.5956 41.0734 35.6185C41.497 35.6175 41.9451 35.6386 42.4099 35.6813C43.0494 35.7472 43.6559 35.7686 44.2057 35.7445C44.2057 35.7445 44.4185 35.7247 44.658 35.6158L44.6602 35.6084ZM122.066 0.812061C121.72 0.686246 121.344 0.583989 120.968 0.512969C120.591 0.441948 120.224 0.404013 119.892 0.401993C119.638 0.395428 119.433 0.428646 119.309 0.496399C119.184 0.56415 119.148 0.662567 119.205 0.776087C119.462 0.838648 119.804 0.922061 119.997 0.968981C120.665 0.96439 121.234 0.904061 122.066 0.812061ZM186.871 11.4146C186.594 11.3133 186.288 11.2358 185.988 11.1911C185.689 11.1463 185.408 11.1361 185.179 11.1615C185.061 11.1725 185.141 11.2876 185.121 11.3544C185.107 11.3695 185.108 11.3883 185.121 11.4089C185.134 11.4294 185.161 11.4509 185.197 11.4711C185.233 11.4914 185.278 11.5095 185.327 11.5238C185.376 11.538 185.427 11.5478 185.474 11.5521C185.776 11.5957 186.06 11.6087 186.303 11.5899C186.545 11.571 186.737 11.521 186.862 11.4442L186.871 11.4146ZM191.213 12.8624C191.17 12.8027 191.079 12.7404 190.956 12.687C190.833 12.6336 190.686 12.5926 190.543 12.5717C190.29 12.5689 190.06 12.5855 189.862 12.6208C189.647 12.6481 189.802 12.8211 190.092 12.9238C190.215 12.965 190.347 12.9971 190.476 13.0176C190.606 13.0381 190.73 13.0465 190.838 13.042C190.947 13.0375 191.037 13.0202 191.101 12.9916C191.165 12.963 191.202 12.9239 191.209 12.8773L191.213 12.8624ZM65.0436 -1.00692C64.3958 -1.22046 63.8972 -1.16674 63.3487 -1.25256C62.8003 -1.33839 62.6651 -1.34742 62.7386 -1.21008C62.8121 -1.07274 63.1881 -1.1006 63.4235 -1.04325C63.7416 -0.967153 64.0616 -0.923458 64.3477 -0.917042C64.6338 -0.910624 64.8748 -0.941741 65.0436 -1.00692ZM200.035 35.1247C199.692 35.0768 199.356 35.043 199.032 35.0237C198.989 35.0435 198.962 35.0695 198.953 35.1001C198.944 35.1307 198.952 35.1652 198.978 35.2017C198.978 35.2017 199.198 35.311 199.326 35.3423C199.799 35.4495 199.822 35.296 200.035 35.1247ZM248.532 55.0203C248.764 55.1644 248.872 55.2625 249.058 55.3316C249.144 55.3557 249.232 55.3731 249.317 55.3827C249.401 55.3923 249.48 55.3937 249.547 55.387C249.629 55.3455 249.648 55.2819 249.601 55.209C249.601 55.209 249.364 55.0797 249.274 55.0736C249.017 55.0431 248.768 55.0252 248.532 55.0203ZM54.0169 -2.22783C53.5246 -2.34774 53.0538 -2.46245 52.7129 -2.32251C53.4946 -2.17192 53.4946 -2.17191 54.0169 -2.22783ZM61.9896 -0.859046C61.4925 -1.11549 61.2009 -1.13876 60.9623 -1.1093C60.9115 -1.10187 60.878 -1.08533 60.8667 -1.06218C60.8553 -1.03904 60.8669 -1.01054 60.8995 -0.980995C60.9321 -0.951453 60.9841 -0.922481 61.0475 -0.898456C61.1109 -0.874432 61.1824 -0.856664 61.2511 -0.847845C61.5103 -0.840463 61.7575 -0.84421 61.9896 -0.859046ZM87.5718 -0.750609C87.583 -0.7877 87.5964 -0.832205 87.468 -0.863485C87.4344 -0.879367 87.3949 -0.89302 87.3536 -0.903087C87.3123 -0.913154 87.2706 -0.91927 87.2326 -0.920826C87.2326 -0.920826 87.2192 -0.876317 87.2103 -0.846644L87.5718 -0.750609ZM105.337 60.8277L105.051 60.8616L105.179 60.8929L105.518 60.9117L105.337 60.8277ZM205.999 12.2837C205.892 12.2576 205.785 12.2315 205.769 12.2835C205.746 12.2915 205.732 12.3031 205.728 12.3173C205.724 12.3315 205.729 12.3479 205.744 12.3651C205.744 12.3651 205.894 12.4016 205.958 12.4172L205.999 12.2837ZM189.333 12.699C189.263 12.696 189.199 12.6995 189.146 12.7092L189.133 12.7537L189.347 12.8058L189.333 12.699ZM44.095 23.3039C44.0124 23.2769 43.9247 23.2555 43.8382 23.2413L43.7311 23.2153C43.7311 23.2153 43.8461 23.2911 43.9104 23.3067C43.9746 23.3223 44.0263 23.3031 44.095 23.3039Z" fill="#DF6951"/>
</g>
</svg>
